<mxfile host="drawio-plugin" modified="2022-10-10T06:59:11.843Z" agent="5.0 (Windows NT 6.2; Win64; x64) AppleWebKit/537.36 (KHTML, like Gecko) Chrome/98.0.4758.102 Safari/537.36" etag="jQNenD-B3ulEm5NO8Ymn" version="15.5.4" type="embed"><diagram id="zGcI5XsqYWWUHTr6JfGO" name="Page-1"><mxGraphModel dx="1292" dy="472" grid="1" gridSize="10" guides="1" tooltips="1" connect="1" arrows="1" fold="1" page="1" pageScale="1" pageWidth="850" pageHeight="1100" math="0" shadow="0"><root><mxCell id="0"/><mxCell id="1" parent="0"/><mxCell id="20" value="" style="edgeStyle=orthogonalEdgeStyle;rounded=0;orthogonalLoop=1;jettySize=auto;html=1;" edge="1" parent="1" source="4" target="9"><mxGeometry relative="1" as="geometry"/></mxCell><mxCell id="23" style="edgeStyle=orthogonalEdgeStyle;rounded=0;orthogonalLoop=1;jettySize=auto;html=1;entryX=0.5;entryY=0;entryDx=0;entryDy=0;" edge="1" parent="1" source="4" target="7"><mxGeometry relative="1" as="geometry"/></mxCell><mxCell id="24" style="edgeStyle=orthogonalEdgeStyle;rounded=0;orthogonalLoop=1;jettySize=auto;html=1;" edge="1" parent="1" source="4" target="10"><mxGeometry relative="1" as="geometry"/></mxCell><mxCell id="25" style="edgeStyle=orthogonalEdgeStyle;rounded=0;orthogonalLoop=1;jettySize=auto;html=1;" edge="1" parent="1" source="4" target="11"><mxGeometry relative="1" as="geometry"/></mxCell><mxCell id="4" value="«interface»&lt;br&gt;&lt;b&gt;Node&lt;/b&gt;" style="html=1;fillColor=#d5e8d4;strokeColor=#82b366;" parent="1" vertex="1"><mxGeometry x="350" y="140" width="110" height="50" as="geometry"/></mxCell><mxCell id="33" style="edgeStyle=orthogonalEdgeStyle;rounded=0;orthogonalLoop=1;jettySize=auto;html=1;entryX=0.5;entryY=0;entryDx=0;entryDy=0;" edge="1" parent="1" source="6" target="4"><mxGeometry relative="1" as="geometry"/></mxCell><mxCell id="6" value="«interface»&lt;br&gt;&lt;b&gt;EventTarget&lt;/b&gt;" style="html=1;fillColor=#f5f5f5;fontColor=#333333;strokeColor=#666666;" vertex="1" parent="1"><mxGeometry x="350" y="50" width="110" height="50" as="geometry"/></mxCell><mxCell id="26" style="edgeStyle=orthogonalEdgeStyle;rounded=0;orthogonalLoop=1;jettySize=auto;html=1;entryX=0.5;entryY=0;entryDx=0;entryDy=0;" edge="1" parent="1" source="7" target="12"><mxGeometry relative="1" as="geometry"/></mxCell><mxCell id="27" style="edgeStyle=orthogonalEdgeStyle;rounded=0;orthogonalLoop=1;jettySize=auto;html=1;entryX=0.5;entryY=0;entryDx=0;entryDy=0;" edge="1" parent="1" source="7" target="13"><mxGeometry relative="1" as="geometry"/></mxCell><mxCell id="7" value="«interface»&lt;br&gt;&lt;b&gt;Document&lt;/b&gt;" style="html=1;fillColor=#fff2cc;strokeColor=#d6b656;" vertex="1" parent="1"><mxGeometry x="100" y="230" width="110" height="50" as="geometry"/></mxCell><mxCell id="28" style="edgeStyle=orthogonalEdgeStyle;rounded=0;orthogonalLoop=1;jettySize=auto;html=1;entryX=0.5;entryY=0;entryDx=0;entryDy=0;" edge="1" parent="1" source="9" target="19"><mxGeometry relative="1" as="geometry"/></mxCell><mxCell id="9" value="«interface»&lt;br&gt;&lt;b&gt;Element&lt;/b&gt;" style="html=1;fillColor=#d5e8d4;strokeColor=#82b366;" vertex="1" parent="1"><mxGeometry x="350" y="230" width="110" height="50" as="geometry"/></mxCell><mxCell id="31" style="edgeStyle=orthogonalEdgeStyle;rounded=0;orthogonalLoop=1;jettySize=auto;html=1;entryX=0.5;entryY=0;entryDx=0;entryDy=0;" edge="1" parent="1" source="10" target="17"><mxGeometry relative="1" as="geometry"/></mxCell><mxCell id="32" style="edgeStyle=orthogonalEdgeStyle;rounded=0;orthogonalLoop=1;jettySize=auto;html=1;" edge="1" parent="1" source="10" target="18"><mxGeometry relative="1" as="geometry"/></mxCell><mxCell id="10" value="«interface»&lt;br&gt;&lt;b&gt;CharacterData&lt;/b&gt;" style="html=1;fillColor=#f8cecc;strokeColor=#b85450;" vertex="1" parent="1"><mxGeometry x="600" y="230" width="110" height="50" as="geometry"/></mxCell><mxCell id="11" value="«interface»&lt;br&gt;&lt;b&gt;Attr&lt;/b&gt;" style="html=1;fillColor=#e1d5e7;strokeColor=#9673a6;" vertex="1" parent="1"><mxGeometry x="850" y="230" width="110" height="50" as="geometry"/></mxCell><mxCell id="12" value="HtmlDocument" style="html=1;fillColor=#fff2cc;strokeColor=#d6b656;" vertex="1" parent="1"><mxGeometry x="20" y="320" width="110" height="50" as="geometry"/></mxCell><mxCell id="13" value="XMLDocument" style="html=1;fillColor=#fff2cc;strokeColor=#d6b656;" vertex="1" parent="1"><mxGeometry x="170" y="320" width="110" height="50" as="geometry"/></mxCell><mxCell id="15" value="HtmlDivElement" style="html=1;fillColor=#d5e8d4;strokeColor=#82b366;" vertex="1" parent="1"><mxGeometry x="280" y="420" width="110" height="50" as="geometry"/></mxCell><mxCell id="16" value="HtmlSpanElement" style="html=1;fillColor=#d5e8d4;strokeColor=#82b366;" vertex="1" parent="1"><mxGeometry x="430" y="420" width="110" height="50" as="geometry"/></mxCell><mxCell id="17" value="Text" style="html=1;fillColor=#f8cecc;strokeColor=#b85450;" vertex="1" parent="1"><mxGeometry x="530" y="320" width="110" height="50" as="geometry"/></mxCell><mxCell id="18" value="Comment" style="html=1;fillColor=#f8cecc;strokeColor=#b85450;" vertex="1" parent="1"><mxGeometry x="680" y="320" width="110" height="50" as="geometry"/></mxCell><mxCell id="29" style="edgeStyle=orthogonalEdgeStyle;rounded=0;orthogonalLoop=1;jettySize=auto;html=1;" edge="1" parent="1" source="19" target="15"><mxGeometry relative="1" as="geometry"/></mxCell><mxCell id="30" style="edgeStyle=orthogonalEdgeStyle;rounded=0;orthogonalLoop=1;jettySize=auto;html=1;" edge="1" parent="1" source="19" target="16"><mxGeometry relative="1" as="geometry"/></mxCell><mxCell id="19" value="«interface»&lt;br&gt;&lt;b&gt;HtmlElement&lt;/b&gt;" style="html=1;fillColor=#d5e8d4;strokeColor=#82b366;" vertex="1" parent="1"><mxGeometry x="350" y="320" width="110" height="50" as="geometry"/></mxCell><mxCell id="37" style="edgeStyle=orthogonalEdgeStyle;rounded=0;orthogonalLoop=1;jettySize=auto;html=1;entryX=0.5;entryY=0;entryDx=0;entryDy=0;" edge="1" parent="1" source="34" target="36"><mxGeometry relative="1" as="geometry"/></mxCell><mxCell id="34" value="«interface»&lt;br&gt;&lt;b&gt;NodeList&lt;/b&gt;" style="html=1;fillColor=#ffe6cc;strokeColor=#d79b00;" vertex="1" parent="1"><mxGeometry x="1070" y="340" width="110" height="50" as="geometry"/></mxCell><mxCell id="36" value="«interface»&lt;br&gt;&lt;b&gt;NodeListOf&lt;/b&gt;" style="html=1;fillColor=#ffe6cc;strokeColor=#d79b00;" vertex="1" parent="1"><mxGeometry x="1070" y="440" width="110" height="50" as="geometry"/></mxCell><mxCell id="39" value="«interface»&lt;br&gt;&lt;b&gt;HtmlCollectionOf&lt;/b&gt;" style="html=1;fillColor=#ffe6cc;strokeColor=#d79b00;" vertex="1" parent="1"><mxGeometry x="760" y="440" width="110" height="50" as="geometry"/></mxCell><mxCell id="42" style="edgeStyle=orthogonalEdgeStyle;rounded=0;orthogonalLoop=1;jettySize=auto;html=1;entryX=0.5;entryY=0;entryDx=0;entryDy=0;" edge="1" parent="1" source="40" target="39"><mxGeometry relative="1" as="geometry"/></mxCell><mxCell id="43" style="edgeStyle=orthogonalEdgeStyle;rounded=0;orthogonalLoop=1;jettySize=auto;html=1;" edge="1" parent="1" source="40" target="41"><mxGeometry relative="1" as="geometry"/></mxCell><mxCell id="40" value="«interface»&lt;br&gt;&lt;b&gt;HtmlCollectionBase&lt;/b&gt;" style="html=1;fillColor=#ffe6cc;strokeColor=#d79b00;" vertex="1" parent="1"><mxGeometry x="830" y="340" width="120" height="50" as="geometry"/></mxCell><mxCell id="41" value="«interface»&lt;br&gt;&lt;b&gt;HtmlCollection&lt;/b&gt;" style="html=1;fillColor=#ffe6cc;strokeColor=#d79b00;" vertex="1" parent="1"><mxGeometry x="910" y="440" width="110" height="50" as="geometry"/></mxCell><mxCell id="44" value="by&amp;nbsp;ScottePerk" style="text;html=1;align=center;verticalAlign=middle;resizable=0;points=[];autosize=1;strokeColor=none;fillColor=none;" vertex="1" parent="1"><mxGeometry x="230" y="240" width="90" height="20" as="geometry"/></mxCell></root></mxGraphModel></diagram></mxfile>